<mxfile host="app.diagrams.net" modified="2025-01-25T19:57:54.390Z" agent="Mozilla/5.0 (Windows NT 10.0; Win64; x64) AppleWebKit/537.36 (KHTML, like Gecko) Chrome/132.0.0.0 Safari/537.36" version="24.5.4" etag="FRn1Sd_yRjBMtsKsnUZK" type="github">
  <diagram name="PÃ¡gina-1" id="8YGOuyTbw2qbS8BMppIk">
    <mxGraphModel>
      <root>
        <mxCell id="0" />
        <mxCell id="1" parent="0" />
      </root>
    </mxGraphModel>
  </diagram>
</mxfile>
